<svg width="227" height="115" viewBox="0 0 227 115" fill="none" xmlns="http://www.w3.org/2000/svg">
<mask id="mask0_25_345" style="mask-type:luminance" maskUnits="userSpaceOnUse" x="5" y="2" width="218" height="111">
<path d="M222.308 2.33008H5.03717V112.449H222.308V2.33008Z" fill="white"/>
</mask>
<g mask="url(#mask0_25_345)">
<path d="M24.1869 63.765H13.9278L14.7002 59.8849H24.5815C25.9751 59.8849 27.0581 60.1999 26.7307 61.8249C26.4452 63.2675 25.3958 63.765 24.1953 63.765M22.6254 73.2746H12.7441L13.5248 69.3945H23.7923C24.9928 69.3945 25.8492 69.8836 25.5637 71.3014C25.2447 72.9015 24.0274 73.2746 22.6338 73.2746M28.7036 66.6419V66.5756C30.878 65.5724 32.196 63.6986 32.7585 60.8798C33.6148 56.5602 32.238 54.2471 26.9741 54.2471H9.91485L5.03717 78.8958H22.0797C27.0833 78.8958 29.6187 76.6407 30.4498 72.4538C31.0039 69.6349 30.517 67.6368 28.6868 66.6336" fill="#231F20"/>
<path d="M42.2788 54.2549L37.4011 78.9036H59.6067L60.7233 73.2741H44.4028L45.1752 69.394H61.4873L62.6039 63.7645H46.2834L47.0557 59.8844H63.3762L64.4844 54.2549H42.2788Z" fill="#231F20"/>
<path d="M135.887 54.2549L131.009 78.9036H153.215L154.331 73.2741H138.019L138.783 69.394H155.104L156.212 63.7645H139.9L140.664 59.8844H156.984L158.101 54.2549H135.887Z" fill="#231F20"/>
<path d="M85.5987 66.5751L97.6376 54.2549H90.1573L82.8114 61.7581L78.3955 54.2549H70.9153L78.0597 66.5751L65.962 78.9036H73.4591L80.9057 71.3921L85.3636 78.9036H92.8606L85.5987 66.5751Z" fill="#231F20"/>
<path d="M119.037 63.7645H109.979C108.518 63.7645 107.435 63.5158 107.762 61.8244C108.09 60.1994 109.223 59.8844 110.684 59.8844H124.872L125.989 54.2549H110.466C105.143 54.2549 102.775 56.9411 101.785 61.9488C100.828 66.7658 102.339 69.394 107.468 69.394H116.527C117.988 69.394 119.138 69.6427 118.802 71.334C118.483 72.9591 117.341 73.2741 115.889 73.2741H99.9294L98.8129 78.9036H116.048C121.371 78.9036 123.739 76.2091 124.729 71.2097C125.678 66.3927 124.175 63.7645 119.046 63.7645" fill="#231F20"/>
<path d="M180.802 63.765H170.853L171.625 59.8849H181.7C183.161 59.8849 184.235 60.1999 183.916 61.8249C183.58 63.5163 182.329 63.765 180.81 63.765M181.801 69.3365C186.477 69.0877 188.869 66.5839 189.785 61.9576C190.775 56.9499 189.474 54.2637 184.151 54.2637H166.857L161.979 78.9124H167.873L169.753 69.4028H174.757L179.391 78.9124H186.426L181.801 69.3447V69.3365Z" fill="#231F20"/>
<path d="M216.373 54.2549H205.92C200.598 54.2549 198.23 56.9494 197.24 61.9488L195.409 71.2097C194.419 76.2174 195.72 78.9036 201.043 78.9036H211.495C216.817 78.9036 219.185 76.2174 220.176 71.2097L222.006 61.9488C222.996 56.9411 221.628 54.2549 216.373 54.2549ZM216.104 61.9571L214.299 71.1931C214.081 72.3207 212.947 73.2492 211.78 73.2492H203.091C201.924 73.2492 201.16 72.3207 201.378 71.1931L203.183 61.9571C203.402 60.8295 204.535 59.9092 205.702 59.9092H214.391C215.558 59.9092 216.331 60.8295 216.104 61.9571Z" fill="#231F20"/>
<path d="M114.16 37.242C115.15 37.4907 116.158 37.6317 117.199 37.64H117.316C119.684 37.64 122.563 37.0099 124.83 35.8326C126.383 33.4614 127.105 30.7171 127.777 27.807C128.071 26.5468 128.213 25.3115 128.213 24.1342C125.048 30.8829 119.533 35.8906 114.151 37.2503M118.894 11.0015C117.266 11.0346 115.671 11.1839 114.151 11.4409C122.832 12.8006 128.348 17.4766 128.213 24.1342C128.742 22.9403 129.187 21.6967 129.473 20.4282C130.153 17.5181 129.96 14.8235 128.86 12.527C126.266 11.5238 123.05 10.9932 119.566 10.9932C119.339 10.9932 119.121 10.9932 118.894 10.9932" fill="#F47B20"/>
<path d="M114.092 37.2425C108.719 35.8828 103.195 30.8751 100.03 24.1264C100.03 25.3037 100.173 26.539 100.467 27.7992C101.138 30.7093 101.86 33.4536 103.414 35.8248C105.689 37.0104 108.56 37.6322 110.927 37.6322H111.045C112.086 37.6239 113.093 37.4829 114.084 37.2342M109.341 10.9854C109.114 10.9854 108.896 10.9854 108.669 10.9854C105.177 10.9854 101.97 11.516 99.3754 12.5192C98.2756 14.8157 98.0825 17.5103 98.7625 20.4203C99.048 21.6888 99.4929 22.9325 100.022 24.1264C99.8875 17.4688 105.403 12.7928 114.084 11.4331C112.564 11.1843 110.969 11.0351 109.341 10.9936" fill="#F47B20"/>
</g>
<mask id="mask1_25_345" style="mask-type:luminance" maskUnits="userSpaceOnUse" x="91" y="2" width="46" height="44">
<path d="M114.151 45.0855C115.612 45.0855 122.051 40.1359 124.628 36.9522C121.925 38.942 117.039 40.9484 114.151 40.9567C111.263 40.9567 106.243 38.942 103.539 36.9522C106.125 40.1359 112.69 45.0938 114.151 45.0938M91.4334 23.9107C92.1302 27.5089 98.5022 32.5663 101.944 34.9375C99.4425 32.1352 97.1674 27.9318 96.0424 24.0516C94.9174 20.1715 95.8493 16.0758 97.7635 13.4145C94.2794 15.5618 90.5855 19.5414 91.4334 23.9107ZM132.209 24.0516C131.093 27.9318 128.809 32.1352 126.308 34.9375C129.75 32.5663 136.122 27.5089 136.818 23.9107C137.658 19.5497 133.972 15.5618 130.488 13.4145C132.403 16.0758 133.334 20.1715 132.209 24.0516ZM99.8287 11.292C103.111 9.44314 108.988 7.85129 114.126 7.843C119.272 7.843 125.191 9.44314 128.482 11.292C125.241 6.76519 117.249 2.32129 114.126 2.32129C111.003 2.32129 103.069 6.76519 99.8287 11.292Z" fill="white"/>
</mask>
<g mask="url(#mask1_25_345)">
<path d="M137.658 2.3291H90.5854V45.0933H137.658V2.3291Z" fill="url(#paint0_linear_25_345)"/>
</g>
<path d="M51.1191 87.1948V87.145H49.7423L48.5921 91.249C48.2815 92.3765 48.0632 93.2056 47.8701 94.1674C47.6602 93.1973 47.4084 92.3351 47.0893 91.249L45.9224 87.1782V87.1367H44.5623L43.9579 96.0908V96.1489H45.0913L45.2927 92.3351C45.3011 92.1195 45.3179 91.904 45.3263 91.6967C45.3767 90.7681 45.4187 89.881 45.4187 89.0851C45.6202 90.0054 45.8804 91.0085 46.1994 92.0532L47.3832 96.0908H48.2143L49.4568 91.8791C49.7255 90.992 49.9773 90.0302 50.2124 89.0187C50.1872 89.9722 50.2544 91.1412 50.3299 92.2688L50.5398 96.1489H51.7236L51.1359 87.1948H51.1191Z" fill="#68002A"/>
<path d="M55.3168 96.2318C55.9044 96.2318 56.5257 96.1157 56.9454 95.925L56.9874 95.9084L56.7691 95.0711L56.7104 95.0959C56.4837 95.2037 56.0891 95.3281 55.535 95.3281C54.4352 95.3281 53.8979 94.5819 53.8812 93.0564H57.2309V93.0066C57.2477 92.8408 57.2645 92.6667 57.2645 92.4263C57.2645 91.0417 56.7104 89.5742 55.1405 89.5742C53.5705 89.5742 52.6302 90.9422 52.6302 92.9818C52.6302 95.0213 53.6125 96.2401 55.3168 96.2401M53.8896 92.2024C53.9483 91.3568 54.3177 90.4696 55.0145 90.4696C55.2244 90.4696 55.4259 90.5525 55.5854 90.7184C55.8792 91.0085 56.0387 91.5392 56.0387 92.2024H53.8896Z" fill="#68002A"/>
<path d="M61.5713 91.9956V96.1576H62.8306V91.8132C62.8306 90.3872 62.1757 89.5664 61.0256 89.5664C60.3288 89.5664 59.7327 89.8566 59.3801 90.3706L59.3213 89.6576H58.2131V89.7073C58.2215 89.898 58.2299 90.0639 58.2383 90.238C58.2551 90.553 58.2719 90.8764 58.2719 91.3572V96.1493H59.5312V92.0868C59.5312 91.8381 59.548 91.6557 59.59 91.5148C59.7075 90.9095 60.1105 90.5281 60.6142 90.5281C61.2606 90.5281 61.5629 90.9924 61.5629 91.9956" fill="#68002A"/>
<path d="M64.8119 88.7698C65.2736 88.7698 65.5674 88.4879 65.5674 88.0568C65.5674 87.6256 65.2652 87.3438 64.8287 87.3438C64.3921 87.3438 64.0983 87.6422 64.0983 88.0568C64.0983 88.4713 64.4005 88.7698 64.8119 88.7698Z" fill="#68002A"/>
<path d="M65.4835 89.6572H64.2242V96.1573H65.4835V89.6572Z" fill="#68002A"/>
<path d="M68.1196 96.1576V92.0868C68.1196 91.8381 68.1364 91.6557 68.1784 91.5148C68.2959 90.9095 68.6989 90.5281 69.2026 90.5281C69.8491 90.5281 70.1513 90.9924 70.1513 91.9956V96.1576H71.4106V91.8132C71.4106 90.3872 70.7557 89.5664 69.6056 89.5664C68.9088 89.5664 68.3127 89.8566 67.9601 90.3706L67.9013 89.6576H66.7932V89.7156C66.7932 89.9063 66.8099 90.0721 66.8183 90.2463C66.8351 90.5613 66.8519 90.8847 66.8519 91.3655V96.1576H68.1112H68.1196Z" fill="#68002A"/>
<path d="M76.1707 90.3038C75.9273 89.939 75.5495 89.5576 74.8359 89.5576C73.6689 89.5576 72.4936 90.6023 72.4936 92.9237C72.4936 94.8472 73.3667 96.1323 74.6764 96.1323C75.2808 96.1323 75.7762 95.8835 76.0448 95.4524V95.9499C76.0448 97.2432 75.5915 97.8485 74.6176 97.8485C73.9544 97.8485 73.4675 97.6578 73.2912 97.5749L73.2408 97.55L72.9385 98.4371L72.9805 98.4537C73.3835 98.6527 74.0047 98.7771 74.5924 98.7771C75.4068 98.7771 76.1036 98.5283 76.5653 98.0889C77.0271 97.6246 77.2957 97.0194 77.2957 95.2617V91.6801C77.2957 90.9505 77.3209 90.4613 77.3377 90.0634C77.3377 89.9224 77.3545 89.7981 77.3545 89.682V89.6239H76.2379L76.1791 90.2706L76.1707 90.3038ZM76.0448 91.9122V93.7611C76.0448 93.9849 76.0196 94.159 75.9693 94.3249C75.793 94.9135 75.4739 95.1954 74.987 95.1954C74.223 95.1954 73.7529 94.3083 73.7529 92.8823C73.7529 91.4562 74.223 90.5359 74.987 90.5359C75.4823 90.5359 75.8181 90.8427 75.986 91.4645C76.0364 91.6055 76.0448 91.7796 76.0448 91.9122Z" fill="#68002A"/>
<path d="M80.8301 89.5659C79.6884 89.5659 78.3535 90.4447 78.3535 92.9154C78.3535 95.3861 79.596 96.2566 80.763 96.2566C81.9299 96.2566 83.2312 95.3778 83.2312 92.8988C83.2312 90.4199 81.9971 89.5576 80.8385 89.5576M80.8217 95.3446C79.7723 95.3446 79.6128 93.8108 79.6128 92.8988C79.6128 92.1692 79.7303 90.4696 80.7882 90.4696C81.846 90.4696 81.9635 92.3268 81.9635 92.8988C81.9635 93.4709 81.8795 95.3446 80.8133 95.3446" fill="#68002A"/>
<path d="M86.6733 96.2323C87.1434 96.2323 87.6051 96.1411 87.899 95.9835L87.9326 95.9669L87.7479 95.0798L87.6891 95.113C87.454 95.2208 87.1854 95.2788 86.8915 95.2788C85.8505 95.2788 85.2377 94.4083 85.2377 92.9408C85.2377 91.8298 85.6658 90.5199 86.858 90.5199C87.2273 90.5199 87.5212 90.6276 87.6639 90.6857L87.7227 90.7105L87.9745 89.782L87.941 89.7654C87.7059 89.6493 87.2693 89.5664 86.8999 89.5664C85.1873 89.5664 83.9868 90.9593 83.9868 92.9491C83.9868 94.9389 85.0026 96.2405 86.69 96.2405" fill="#68002A"/>
<path d="M90.6862 96.2571C91.8784 96.2571 93.1545 95.3783 93.1545 92.9076C93.1545 90.4369 91.9204 89.5664 90.7618 89.5664C89.6032 89.5664 88.2852 90.4452 88.2852 92.9242C88.2852 95.4032 89.5277 96.2654 90.6862 96.2654M90.7198 90.4784C91.8112 90.4784 91.8952 92.3356 91.8952 92.9076C91.8952 93.4797 91.8112 95.3534 90.7534 95.3534C89.6956 95.3534 89.5445 93.8196 89.5445 92.9076C89.5445 92.178 89.6536 90.4784 90.7198 90.4784Z" fill="#68002A"/>
<path d="M96.7812 90.5281C97.1506 90.5281 97.4445 90.6359 97.5872 90.694L97.6459 90.7188L97.8978 89.7903L97.8642 89.7737C97.6292 89.6576 97.1926 89.5664 96.8232 89.5664C95.1106 89.5664 93.91 90.9593 93.91 92.9491C93.91 94.9389 94.9259 96.2405 96.6133 96.2405C97.0835 96.2405 97.5368 96.1493 97.839 95.9918L97.8726 95.9752L97.6879 95.0881L97.6292 95.1213C97.3857 95.2291 97.1254 95.2871 96.8316 95.2871C95.799 95.2871 95.1777 94.4166 95.1777 92.9491C95.1777 91.8381 95.6059 90.5281 96.798 90.5281" fill="#68002A"/>
<path d="M100.912 96.2323C101.382 96.2323 101.844 96.1411 102.137 95.9835L102.171 95.9669L101.986 95.0798L101.928 95.113C101.692 95.2208 101.424 95.2788 101.13 95.2788C100.097 95.2788 99.4761 94.4083 99.4761 92.9408C99.4761 91.8298 99.9043 90.5199 101.096 90.5199C101.466 90.5199 101.76 90.6276 101.902 90.6857L101.961 90.7105L102.213 89.782L102.179 89.7654C101.944 89.6493 101.508 89.5664 101.138 89.5664C99.4258 89.5664 98.2252 90.9593 98.2252 92.9491C98.2252 94.9389 99.2411 96.2405 100.929 96.2405" fill="#68002A"/>
<path d="M102.557 94.3829C102.557 95.4856 103.279 96.2566 104.32 96.2566C104.925 96.2566 105.437 95.9913 105.773 95.5187L105.84 96.1489H106.982V96.0908C106.923 95.7509 106.898 95.27 106.898 94.6399V91.8708C106.898 90.337 106.184 89.5576 104.774 89.5576C104.06 89.5576 103.38 89.7815 103.053 89.9887L103.019 90.0136L103.313 90.8261L103.372 90.793C103.724 90.5774 104.11 90.4696 104.539 90.4696C105.302 90.4696 105.638 90.9007 105.638 91.8542V92.0034C104.136 92.0283 102.549 92.6667 102.549 94.3829M104.614 95.3612C104.228 95.3612 103.783 95.0793 103.783 94.2751C103.783 93.1061 104.799 92.8491 105.672 92.8325V94.0761C105.672 94.1922 105.655 94.3249 105.63 94.4326C105.504 95.013 105.126 95.3529 104.614 95.3529" fill="#68002A"/>
<path d="M109.567 86.9131H108.308V96.1574H109.567V86.9131Z" fill="#68002A"/>
<path d="M116.603 96.2317C117.283 96.2317 118.013 96.0742 118.408 95.9249H118.441V91.3981H115.948V92.3516H117.249V95.1705C117.157 95.2119 116.938 95.2534 116.594 95.2534C115.889 95.2534 114.252 94.9052 114.252 91.6717C114.252 88.4383 116.216 88.0818 116.821 88.0818C117.425 88.0818 117.753 88.1979 117.954 88.2891L118.013 88.3139L118.298 87.3439L118.256 87.3273C117.921 87.1615 117.392 87.0703 116.812 87.0703C114.957 87.0703 112.967 88.3057 112.951 91.7712C112.934 93.305 113.387 94.615 114.176 95.3612C114.789 95.9498 115.578 96.2317 116.594 96.2317" fill="#68002A"/>
<path d="M122.37 90.7101H122.664V89.5825H122.622C122.546 89.5576 122.463 89.5576 122.37 89.5576C121.766 89.5576 121.153 89.9722 120.851 90.5608L120.8 89.6488H119.659V89.7069C119.659 89.881 119.675 90.0634 119.684 90.2706C119.7 90.6354 119.717 91.0085 119.717 91.3567V96.1489H120.977V92.5589C120.977 92.3433 120.993 92.1527 121.019 91.9868C121.144 91.2324 121.699 90.7101 122.362 90.7101" fill="#68002A"/>
<path d="M125.216 96.2571C126.408 96.2571 127.684 95.3783 127.684 92.9076C127.684 90.4369 126.45 89.5664 125.292 89.5664C124.133 89.5664 122.815 90.4452 122.815 92.9242C122.815 95.4032 124.058 96.2654 125.216 96.2654M125.25 90.4784C126.341 90.4784 126.425 92.3356 126.425 92.9076C126.425 93.4797 126.341 95.3534 125.283 95.3534C124.226 95.3534 124.074 93.8196 124.074 92.9076C124.074 92.178 124.184 90.4784 125.25 90.4784Z" fill="#68002A"/>
<path d="M133.234 95.6018C133.217 95.237 133.192 94.8307 133.192 94.3581V89.6572H131.932V93.9187C131.932 94.1509 131.916 94.3333 131.874 94.4908C131.815 94.7644 131.538 95.295 130.891 95.295C130.245 95.295 129.968 94.7893 129.968 93.6037V89.6572H128.709V93.7529C128.709 95.4442 129.305 96.265 130.53 96.265C131.303 96.265 131.832 95.8339 132.067 95.5354L132.151 96.1573H133.259V96.0992C133.259 95.9417 133.242 95.7759 133.234 95.6018Z" fill="#68002A"/>
<path d="M135.811 98.6946V95.6104C135.996 95.8923 136.374 96.2571 137.062 96.2571C138.17 96.2571 139.362 95.37 139.362 92.891C139.362 90.81 138.556 89.5664 137.213 89.5664C136.575 89.5664 136.055 89.8566 135.685 90.4121L135.635 89.6576H134.51V89.7156C134.51 89.84 134.518 89.9727 134.527 90.1219C134.543 90.5116 134.569 91.0007 134.569 91.7137V98.7029H135.811V98.6946ZM136.869 90.5447C137.985 90.5447 138.103 92.2112 138.103 92.9242C138.103 93.8196 137.944 95.312 136.877 95.312C136.592 95.312 136.088 95.1793 135.861 94.2839C135.819 94.143 135.803 93.9771 135.803 93.7699V92.1283C135.803 91.9542 135.819 91.7884 135.845 91.6474C135.903 91.0588 136.374 90.5447 136.852 90.5447" fill="#68002A"/>
<path d="M144.324 96.2074C145.575 96.2074 146.482 95.9338 147.027 95.3866C147.506 94.9223 147.766 94.2922 147.766 93.5792C147.766 92.4433 147.094 91.5894 145.953 91.2826C146.901 90.9178 147.447 90.2048 147.447 89.3011C147.447 88.6461 147.212 88.1072 146.767 87.7424C146.255 87.3196 145.516 87.1123 144.5 87.1123C143.904 87.1123 143.333 87.1703 142.813 87.2864H142.771V96.1079H142.813C143.182 96.1742 143.677 96.2074 144.324 96.2074ZM144.551 95.2954C144.366 95.2954 144.181 95.2788 144.022 95.2539V91.8132H144.475C145.39 91.8215 146.456 92.2941 146.456 93.5875C146.456 94.6653 145.743 95.3037 144.551 95.3037M144.492 90.9344H144.022V88.0658C144.164 88.0326 144.358 88.0077 144.584 88.0077C145.634 88.0077 146.196 88.4969 146.196 89.4089C146.196 90.2711 145.466 90.9261 144.492 90.9261" fill="#68002A"/>
<path d="M152.241 96.1572H153.508L155.867 87.2196L155.884 87.1533H154.541L153.576 91.3402L153.559 91.4148C153.332 92.4097 153.08 93.529 152.929 94.5902C152.761 93.5704 152.501 92.4429 152.241 91.3651L151.267 87.1948V87.1533H149.898L152.224 96.1157V96.1572H152.241Z" fill="#68002A"/>
<path d="M158.89 95.5187L158.957 96.1489H160.099V96.0908C160.04 95.7509 160.015 95.27 160.015 94.6482V91.8708C160.015 90.337 159.301 89.5576 157.891 89.5576C157.177 89.5576 156.497 89.7815 156.17 89.9887L156.136 90.0136L156.422 90.8261L156.48 90.793C156.825 90.5774 157.219 90.4696 157.656 90.4696C158.42 90.4696 158.755 90.9007 158.755 91.8542V92.0034C157.253 92.0283 155.666 92.6667 155.666 94.3829C155.666 95.4856 156.396 96.2566 157.429 96.2566C158.034 96.2566 158.546 95.9913 158.89 95.5187ZM158.789 92.8408V94.0844C158.789 94.2088 158.772 94.3332 158.747 94.4409C158.621 95.0213 158.243 95.3612 157.731 95.3612C157.345 95.3612 156.9 95.0793 156.9 94.2834C156.9 93.1144 157.916 92.8491 158.789 92.8408Z" fill="#68002A"/>
<path d="M163.994 90.5281C164.364 90.5281 164.657 90.6359 164.8 90.694L164.859 90.7188L165.111 89.7903L165.077 89.7737C164.842 89.6576 164.406 89.5664 164.036 89.5664C162.323 89.5664 161.123 90.9593 161.123 92.9491C161.123 94.9389 162.139 96.2405 163.826 96.2405C164.296 96.2405 164.75 96.1493 165.052 95.9918L165.086 95.9752L164.901 95.0881L164.842 95.1213C164.599 95.2291 164.338 95.2871 164.045 95.2871C163.004 95.2871 162.391 94.4166 162.391 92.9491C162.391 91.8381 162.819 90.5281 164.019 90.5281" fill="#68002A"/>
<path d="M168.133 96.2323C168.603 96.2323 169.057 96.1411 169.359 95.9835L169.392 95.9669L169.208 95.0798L169.149 95.113C168.914 95.2208 168.645 95.2788 168.351 95.2788C167.319 95.2788 166.697 94.4083 166.697 92.9408C166.697 91.8298 167.126 90.5199 168.318 90.5199C168.687 90.5199 168.981 90.6276 169.124 90.6857L169.182 90.7105L169.434 89.782L169.392 89.7654C169.157 89.6493 168.721 89.5664 168.351 89.5664C166.639 89.5664 165.438 90.9593 165.438 92.9491C165.438 94.9389 166.454 96.2405 168.141 96.2405" fill="#68002A"/>
<path d="M171.407 89.6572H170.148V96.1573H171.407V89.6572Z" fill="#68002A"/>
<path d="M170.736 88.7698C171.197 88.7698 171.491 88.4879 171.491 88.0568C171.491 87.6256 171.189 87.3438 170.744 87.3438C170.324 87.3438 170.022 87.6422 170.022 88.0568C170.022 88.4713 170.324 88.7698 170.736 88.7698Z" fill="#68002A"/>
<path d="M177.334 96.1576V91.8132C177.334 90.3872 176.679 89.5664 175.529 89.5664C174.833 89.5664 174.236 89.8566 173.884 90.3706L173.833 89.6576H172.725V89.7156C172.725 89.9063 172.742 90.0722 172.75 90.2545C172.767 90.5696 172.784 90.8929 172.784 91.3655V96.1576H174.043V92.0868C174.043 91.8381 174.06 91.6557 174.102 91.5148C174.22 90.9095 174.631 90.5281 175.126 90.5281C175.773 90.5281 176.075 90.9924 176.075 91.9956V96.1576H177.334Z" fill="#68002A"/>
<path d="M180.911 89.5664C179.408 89.5664 178.401 90.9344 178.401 92.9739C178.401 95.0135 179.383 96.2323 181.087 96.2323C181.675 96.2323 182.296 96.1162 182.716 95.9255L182.758 95.9089L182.539 95.0715L182.481 95.0964C182.254 95.2042 181.859 95.3286 181.305 95.3286C180.206 95.3286 179.66 94.5824 179.651 93.0569H183.001V93.0071C183.018 92.8662 183.035 92.6838 183.035 92.4185C183.035 91.0422 182.481 89.5664 180.911 89.5664ZM180.793 90.4618C181.003 90.4618 181.205 90.5447 181.364 90.7105C181.658 91.0007 181.817 91.5313 181.817 92.1946H179.66C179.719 91.3489 180.088 90.4618 180.785 90.4618" fill="#68002A"/>
<path d="M50.0361 100.667H49.0119L48.9951 100.684C48.399 101.447 47.3832 103.163 47.3496 106.081C47.3496 108.933 48.3822 110.683 48.9951 111.479L49.0119 111.495H50.0361L49.9773 111.412C49.2721 110.418 48.4326 108.685 48.4326 106.09C48.4326 103.495 49.2721 101.729 49.9773 100.742L50.0361 100.659V100.667Z" fill="#68002A"/>
<path d="M53.5705 103.329C52.9577 103.329 52.3532 103.735 52.051 104.332L52.0006 103.42H50.8672V103.478C50.8672 103.644 50.884 103.835 50.8924 104.034C50.9092 104.399 50.926 104.78 50.926 105.128V109.92H52.1853V106.33C52.1853 106.123 52.2021 105.924 52.2273 105.758C52.3532 105.004 52.9073 104.482 53.5705 104.482H53.8644V103.354H53.8224C53.7384 103.329 53.6629 103.329 53.5705 103.329Z" fill="#68002A"/>
<path d="M58.6413 101.554C58.0536 101.09 57.2645 100.866 56.2402 100.866C55.6358 100.866 55.0985 100.924 54.6787 101.04H54.6367V109.862H54.6787C54.9809 109.928 55.4343 109.961 55.9632 109.961C57.1805 109.961 58.1376 109.638 58.784 108.991C59.5983 108.204 60.0181 106.927 60.0181 105.186C60.0181 103.047 59.2625 102.019 58.6329 101.538M58.7084 105.211C58.7084 107.69 57.8605 109 56.257 109C56.1563 109 56.0219 109 55.8708 108.983V101.828C56.0387 101.795 56.2402 101.786 56.3578 101.786C57.9109 101.786 58.7 102.939 58.7 105.211" fill="#68002A"/>
<path d="M65.3072 104.141C65.3072 105.493 65.3408 106.587 65.4247 107.972C65.1309 107.184 64.7363 106.28 64.3837 105.476L62.3604 100.933L62.3436 100.899H61.1767V109.903H62.3185V106.778C62.3185 104.995 62.2933 103.917 62.2177 102.856C62.5116 103.718 62.8726 104.597 63.3343 105.6L65.2484 109.878L65.2652 109.912H66.4322V100.908H65.2904V104.141H65.3072Z" fill="#68002A"/>
<path d="M71.1252 100.908H69.7651L67.448 109.846L67.4312 109.912H68.6653L69.3286 107.242H71.4946L72.1494 109.912H73.4003L71.1419 100.95V100.908H71.1252ZM70.4032 102.26C70.5123 102.848 70.6382 103.545 70.7809 104.133L71.2931 106.33H69.5049L70.017 104.142C70.1681 103.553 70.3024 102.823 70.4116 102.268" fill="#68002A"/>
<path d="M74.6428 108.445C74.5001 109.307 74.1055 110.716 73.7781 111.512L73.7445 111.595L74.626 111.487H74.6512L74.668 111.462C75.0878 110.857 75.7258 109.357 76.0532 108.329L76.0784 108.254L74.6512 108.403V108.445H74.6428Z" fill="#68002A"/>
<path d="M81.9131 104.291C82.2825 104.291 82.5764 104.399 82.7107 104.457L82.7695 104.482L83.0213 103.553L82.9877 103.536C82.7527 103.42 82.3161 103.329 81.9467 103.329C80.2341 103.329 79.0335 104.722 79.0335 106.712C79.0335 108.702 80.0494 110.003 81.7368 110.003C82.207 110.003 82.6603 109.912 82.9625 109.755L82.9961 109.738L82.8114 108.851L82.7527 108.884C82.5092 108.992 82.2489 109.05 81.9551 109.05C80.9225 109.05 80.3012 108.179 80.3012 106.712C80.3012 105.593 80.7294 104.291 81.9299 104.291" fill="#68002A"/>
<path d="M85.8253 103.329C84.6836 103.329 83.3487 104.207 83.3487 106.678C83.3487 109.149 84.5912 110.019 85.7498 110.019C86.9083 110.019 88.218 109.14 88.218 106.662C88.218 104.183 86.9839 103.32 85.8253 103.32M85.8086 109.107C84.7591 109.107 84.5996 107.574 84.5996 106.662C84.5996 105.932 84.7172 104.232 85.775 104.232C86.8328 104.232 86.9503 106.089 86.9503 106.662C86.9503 107.234 86.8664 109.107 85.8002 109.107" fill="#68002A"/>
<path d="M95.2617 103.329C94.8587 103.329 94.5145 103.412 94.2291 103.586C93.9772 103.718 93.7253 103.967 93.5238 104.274C93.2636 103.66 92.7263 103.329 91.9875 103.329C91.2991 103.329 90.7282 103.619 90.3672 104.149L90.3084 103.428H89.2003V103.478C89.2003 103.669 89.217 103.834 89.2254 104.008C89.2422 104.324 89.259 104.647 89.259 105.128V109.92H90.5015V105.816C90.5015 105.617 90.5183 105.443 90.5435 105.285C90.661 104.68 91.064 104.282 91.5677 104.282C92.4157 104.282 92.5164 105.028 92.5164 105.683V109.92H93.7589V105.758C93.7589 105.542 93.7757 105.352 93.8009 105.202C93.9604 104.63 94.3466 104.274 94.8167 104.274C95.6647 104.274 95.7822 105.078 95.7822 105.857V109.912H97.0247V105.633C97.0247 103.627 95.8997 103.32 95.2365 103.32" fill="#68002A"/>
<path d="M101.071 103.329C100.433 103.329 99.9127 103.619 99.5433 104.175L99.4845 103.42H98.3596V103.478C98.3596 103.603 98.368 103.735 98.3763 103.876C98.3931 104.266 98.4183 104.763 98.4183 105.468V112.457H99.6608V109.373C99.8455 109.655 100.223 110.028 100.912 110.028C102.02 110.028 103.212 109.141 103.212 106.662C103.212 104.581 102.406 103.337 101.063 103.337M100.719 104.316C101.835 104.316 101.953 105.982 101.953 106.695C101.953 107.591 101.793 109.091 100.727 109.091C100.442 109.091 99.9379 108.959 99.7112 108.063C99.6692 107.922 99.6524 107.756 99.6524 107.549V105.908C99.6524 105.733 99.6692 105.568 99.6944 105.427C99.7532 104.838 100.223 104.324 100.702 104.324" fill="#68002A"/>
<path d="M106.461 103.329C105.319 103.329 103.984 104.207 103.984 106.678C103.984 109.149 105.227 110.019 106.385 110.019C107.544 110.019 108.854 109.14 108.854 106.662C108.854 104.183 107.62 103.32 106.461 103.32M106.444 109.107C105.395 109.107 105.235 107.574 105.235 106.662C105.235 105.932 105.353 104.232 106.411 104.232C107.468 104.232 107.586 106.089 107.586 106.662C107.586 107.234 107.502 109.107 106.436 109.107" fill="#68002A"/>
<path d="M112.665 103.329C111.968 103.329 111.372 103.619 111.02 104.133L110.961 103.42H109.853V103.47C109.853 103.66 109.87 103.826 109.878 104C109.895 104.315 109.912 104.639 109.912 105.119V109.912H111.171V105.841C111.171 105.592 111.188 105.41 111.23 105.269C111.347 104.663 111.75 104.282 112.254 104.282C112.9 104.282 113.202 104.746 113.202 105.75V109.912H114.462V105.567C114.462 104.141 113.807 103.32 112.657 103.32" fill="#68002A"/>
<path d="M118.047 103.32C116.544 103.32 115.536 104.688 115.536 106.728C115.536 108.767 116.519 109.986 118.223 109.986C118.811 109.986 119.432 109.87 119.852 109.679L119.894 109.663L119.675 108.825L119.617 108.85C119.39 108.958 118.995 109.082 118.441 109.082C117.341 109.082 116.796 108.336 116.787 106.811H120.137V106.761C120.154 106.595 120.171 106.421 120.171 106.172C120.171 104.796 119.617 103.32 118.047 103.32ZM117.929 104.216C118.139 104.216 118.34 104.299 118.5 104.464C118.794 104.763 118.953 105.285 118.953 105.949H116.804C116.863 105.103 117.232 104.216 117.929 104.216Z" fill="#68002A"/>
<path d="M123.932 103.329C123.235 103.329 122.639 103.619 122.286 104.133L122.227 103.42H121.119V103.47C121.119 103.66 121.136 103.826 121.144 104.008C121.161 104.324 121.178 104.647 121.178 105.119V109.912H122.437V105.841C122.437 105.592 122.454 105.41 122.496 105.269C122.614 104.663 123.017 104.282 123.52 104.282C124.167 104.282 124.469 104.746 124.469 105.75V109.912H125.728V105.567C125.728 104.141 125.073 103.32 123.923 103.32" fill="#68002A"/>
<path d="M128.558 101.903L127.298 102.351V103.421H126.417V104.291H127.298V107.947C127.298 108.818 127.424 109.282 127.743 109.597C128.003 109.863 128.398 109.995 128.919 109.995C129.271 109.995 129.557 109.962 129.792 109.887H129.834L129.766 108.992L129.708 109.009C129.59 109.033 129.439 109.05 129.254 109.05C128.952 109.05 128.558 108.942 128.558 108.047V104.299H129.951V103.429H128.558V101.912V101.903Z" fill="#68002A"/>
<path d="M130.858 108.445C130.715 109.307 130.321 110.716 129.993 111.512L129.96 111.595L130.841 111.487H130.866L130.875 111.462C131.294 110.857 131.932 109.357 132.26 108.329L132.285 108.254L130.866 108.403V108.445H130.858Z" fill="#68002A"/>
<path d="M139.488 108.411V105.642C139.488 104.108 138.775 103.329 137.364 103.329C136.651 103.329 135.971 103.553 135.643 103.76L135.61 103.785L135.903 104.598L135.962 104.564C136.306 104.349 136.701 104.241 137.138 104.241C137.91 104.241 138.237 104.656 138.237 105.626V105.775C136.735 105.8 135.148 106.438 135.148 108.154C135.148 109.257 135.87 110.028 136.911 110.028C137.515 110.028 138.027 109.763 138.363 109.29L138.439 109.92H139.581V109.862C139.522 109.522 139.497 109.033 139.497 108.411M137.213 109.124C136.827 109.124 136.382 108.843 136.382 108.038C136.382 106.869 137.398 106.612 138.271 106.596V107.839C138.271 107.955 138.254 108.088 138.229 108.196C138.103 108.776 137.725 109.116 137.221 109.116" fill="#68002A"/>
<path d="M145.407 109.465C145.39 109.1 145.365 108.635 145.365 108.329V100.668H144.122V103.984C143.845 103.561 143.384 103.321 142.813 103.321C141.705 103.321 140.588 104.357 140.588 106.687C140.588 108.71 141.436 110.012 142.737 110.012C143.636 110.012 144.097 109.44 144.265 109.166L144.332 109.912H145.424V109.854C145.424 109.746 145.415 109.606 145.407 109.456M144.122 105.908V107.599C144.122 107.757 144.106 107.898 144.08 108.005C143.887 108.71 143.535 109.067 143.023 109.067C142.158 109.067 141.847 107.84 141.847 106.687C141.847 105.966 141.965 104.291 143.081 104.291C143.585 104.291 144.03 104.813 144.106 105.485C144.122 105.618 144.122 105.775 144.122 105.9" fill="#68002A"/>
<path d="M148.463 106.056C147.774 105.642 147.59 105.418 147.59 105.003C147.59 104.63 147.867 104.241 148.463 104.241C148.79 104.241 149.084 104.324 149.411 104.522L149.462 104.556L149.806 103.685L149.764 103.66C149.487 103.519 149.059 103.32 148.454 103.32C147.271 103.32 146.406 104.083 146.406 105.144C146.406 105.857 146.859 106.429 147.884 107.001C148.639 107.449 148.782 107.773 148.782 108.212C148.782 108.751 148.396 109.082 147.774 109.082C147.237 109.082 146.767 108.834 146.633 108.759L146.574 108.726L146.255 109.588L146.288 109.613C146.607 109.837 147.187 109.994 147.741 109.994C149.101 109.994 149.982 109.223 149.982 108.038C149.982 107.043 149.168 106.454 148.463 106.048" fill="#68002A"/>
<path d="M153.131 103.329C151.989 103.329 150.654 104.207 150.654 106.678C150.654 109.149 151.897 110.019 153.063 110.019C154.23 110.019 155.532 109.14 155.532 106.662C155.532 104.183 154.298 103.32 153.139 103.32M153.122 109.107C152.073 109.107 151.913 107.574 151.913 106.662C151.913 105.932 152.031 104.232 153.089 104.232C154.146 104.232 154.264 106.089 154.264 106.662C154.264 107.234 154.18 109.107 153.114 109.107" fill="#68002A"/>
<path d="M159.209 103.329C158.596 103.329 157.991 103.735 157.689 104.332L157.639 103.42H156.497V103.478C156.497 103.644 156.514 103.835 156.522 104.034C156.539 104.399 156.556 104.78 156.556 105.128V109.92H157.815V106.33C157.815 106.123 157.832 105.924 157.857 105.758C157.983 105.004 158.537 104.482 159.2 104.482H159.494V103.354H159.452C159.368 103.337 159.293 103.337 159.2 103.337" fill="#68002A"/>
<path d="M162.928 103.329C162.256 103.329 161.753 103.586 161.408 104.108V100.676H160.166V108.337C160.166 108.652 160.141 109.108 160.124 109.481C160.124 109.63 160.107 109.754 160.107 109.862V109.92H161.182L161.249 109.124C161.492 109.555 161.879 110.028 162.701 110.028C163.826 110.028 164.96 108.975 164.96 106.62C164.96 104.589 164.179 103.329 162.928 103.329ZM162.466 104.307C163.583 104.307 163.7 105.949 163.7 106.662C163.7 107.565 163.541 109.083 162.491 109.083C162.156 109.083 161.702 108.9 161.45 108.013C161.425 107.897 161.408 107.773 161.408 107.632V105.833C161.408 105.692 161.425 105.543 161.442 105.41C161.543 104.871 161.954 104.315 162.466 104.315" fill="#68002A"/>
<path d="M168.209 103.32C166.706 103.32 165.698 104.688 165.698 106.728C165.698 108.767 166.681 109.986 168.385 109.986C168.973 109.986 169.594 109.87 170.014 109.679L170.056 109.663L169.837 108.825L169.779 108.85C169.552 108.958 169.157 109.082 168.603 109.082C167.503 109.082 166.958 108.336 166.949 106.811H170.299V106.761C170.316 106.595 170.333 106.421 170.333 106.172C170.333 104.796 169.779 103.32 168.217 103.32M168.099 104.216C168.309 104.216 168.502 104.299 168.67 104.464C168.964 104.763 169.124 105.285 169.124 105.949H166.975C167.033 105.103 167.403 104.216 168.099 104.216Z" fill="#68002A"/>
<path d="M175.857 109.473C175.84 109.1 175.815 108.635 175.815 108.329V100.668H174.572V103.984C174.295 103.553 173.833 103.321 173.263 103.321C172.154 103.321 171.038 104.357 171.038 106.687C171.038 108.71 171.877 110.012 173.187 110.012C173.833 110.012 174.396 109.697 174.715 109.166L174.782 109.912H175.874V109.854C175.874 109.746 175.865 109.622 175.857 109.473ZM174.572 105.908V107.599C174.572 107.757 174.555 107.898 174.53 108.005C174.337 108.71 173.976 109.067 173.472 109.067C172.608 109.067 172.297 107.84 172.297 106.687C172.297 105.966 172.415 104.291 173.531 104.291C174.035 104.291 174.48 104.813 174.555 105.485C174.572 105.618 174.572 105.775 174.572 105.9" fill="#68002A"/>
<path d="M177.746 100.668H176.721L176.78 100.751C177.485 101.729 178.325 103.454 178.325 106.065C178.325 108.121 177.771 110.02 176.78 111.413L176.721 111.496H177.746L177.763 111.479C178.493 110.526 179.374 108.81 179.408 106.074C179.408 103.188 178.375 101.464 177.763 100.693L177.746 100.676V100.668Z" fill="#68002A"/>
<defs>
<linearGradient id="paint0_linear_25_345" x1="114.287" y1="2.38548" x2="114.287" y2="45.1763" gradientUnits="userSpaceOnUse">
<stop stop-color="#00467F"/>
<stop offset="0.25" stop-color="#00467F"/>
<stop offset="0.46" stop-color="#00689C"/>
<stop offset="0.67" stop-color="#0083B3"/>
<stop offset="0.86" stop-color="#0094C2"/>
<stop offset="1" stop-color="#009AC7"/>
</linearGradient>
</defs>
</svg>
