<svg width="34" height="34" viewBox="0 0 34 34" fill="none" xmlns="http://www.w3.org/2000/svg">
<mask id="mask0_2_313" style="mask-type:luminance" maskUnits="userSpaceOnUse" x="0" y="0" width="34" height="34">
<path d="M0.560425 1.13062L32.5409 0.0138313L33.6577 31.9943L1.67721 33.1111L0.560425 1.13062Z" fill="white"/>
</mask>
<g mask="url(#mask0_2_313)">
<path d="M30.8234 22.2871L28.3248 20.936L30.4345 20.2807C30.9541 20.1187 31.2473 19.5581 31.085 19.0323L30.7951 18.073C30.6392 17.5469 30.0846 17.2473 29.5649 17.4093L24.6341 18.9385L20.0573 16.4593L24.4562 13.6665L29.4818 14.8482C30.0115 14.9735 30.5375 14.6361 30.6626 14.1002L30.885 13.1231C31.0038 12.5874 30.6785 12.0484 30.1488 11.923L27.9986 11.4165L30.397 9.89441C30.8558 9.60322 30.9968 8.98542 30.7115 8.51385L30.1877 7.66286C29.9023 7.19128 29.2907 7.05004 28.8319 7.34123L26.4336 8.86336L26.9262 6.67608C27.0451 6.14035 26.7199 5.60138 26.1902 5.47604L25.2319 5.2531C24.7022 5.12775 24.1761 5.46507 24.0509 6.00101L22.8972 11.1069L18.4982 13.8996L18.3139 8.62158L21.8261 4.79042C22.1936 4.38985 22.1713 3.75274 21.7768 3.37878L21.0588 2.69717C20.6643 2.32321 20.0397 2.34503 19.6722 2.7456L18.1723 4.38644L18.0722 1.51944C18.053 0.969774 17.6001 0.535316 17.0566 0.554295L16.076 0.588538C15.5325 0.607516 15.111 1.07251 15.1302 1.62218L15.2307 4.50167L13.6201 2.96945C13.2255 2.59549 12.6009 2.6173 12.2334 3.01787L11.5397 3.74878C11.1722 4.14935 11.1945 4.78646 11.589 5.16042L15.3599 8.73724L15.5442 14.0153L10.9612 11.5362L9.45405 6.52326C9.29809 5.99713 8.74355 5.69755 8.22388 5.85953L7.2834 6.14878C6.76374 6.31077 6.47063 6.87134 6.63283 7.39725L7.27692 9.54483L4.77824 8.19371C4.30018 7.93523 3.70622 8.11857 3.44818 8.60913L2.98505 9.49458C2.73326 9.98492 2.91058 10.5853 3.3951 10.8498L5.89377 12.201L3.78368 12.8438C3.26401 13.0057 2.9709 13.5663 3.1331 14.0923L3.423 15.0514C3.57896 15.5775 4.1335 15.8771 4.65316 15.7152L9.58405 14.1859L14.1671 16.665L9.76814 19.4577L4.74259 18.276C4.2129 18.1508 3.68685 18.488 3.56173 19.024L3.33944 20.0011C3.22057 20.5368 3.54582 21.0758 4.07552 21.2011L6.22576 21.7077L3.82742 23.2298C3.36855 23.521 3.22753 24.1388 3.51291 24.6103L4.03668 25.4614C4.32206 25.933 4.93361 26.0741 5.39247 25.7829L7.79081 24.2608L7.2981 26.4481C7.17923 26.9839 7.50448 27.5228 8.03418 27.6482L8.99255 27.8712C9.52224 27.9965 10.0483 27.6592 10.1734 27.1232L11.3272 22.0173L15.7262 19.2246L15.9105 24.5027L12.3983 28.3338C12.0308 28.7344 12.053 29.3715 12.4476 29.7454L13.1655 30.4271C13.5601 30.8011 14.1847 30.7792 14.5522 30.3787L16.0521 28.7378L16.1522 31.6048C16.1714 32.1544 16.6243 32.5889 17.1678 32.5699L18.1484 32.5357C18.6919 32.5167 19.1134 32.0517 19.0942 31.502L18.9936 28.6225L20.6043 30.1547C20.9989 30.5288 21.6235 30.507 21.9909 30.1063L22.6597 29.3763C23.0271 28.9757 23.0049 28.3386 22.6104 27.9647L18.8395 24.3879L18.6551 19.1098L23.2382 21.5889L24.7453 26.6018C24.9013 27.128 25.4559 27.4275 25.9755 27.2656L26.916 26.9763C27.4357 26.8144 27.7288 26.2537 27.5665 25.7278L26.9225 23.5802L29.4212 24.9313C29.8992 25.1898 30.4931 25.0065 30.7512 24.516L31.2144 23.6305C31.4853 23.152 31.3077 22.5453 30.8234 22.2871Z" fill="#0D47A1"/>
</g>
</svg>
