<svg width="36" height="31" viewBox="0 0 36 31" fill="none" xmlns="http://www.w3.org/2000/svg">
<path d="M28.4351 11.0144C28.396 10.9133 28.3758 10.8664 28.3595 10.8182C27.9718 9.67233 27.1428 9.15052 25.9458 9.33114C24.8621 9.49469 23.9877 10.03 23.3417 10.9149C22.7735 11.6931 22.7614 12.4771 23.2746 13.2952C23.5462 13.7281 23.8905 14.1046 24.2123 14.4983C24.5626 14.9268 24.892 15.3695 25.1815 15.8418C26.8466 18.5578 25.2438 21.4792 22.2997 21.9566C20.8446 22.1926 19.4989 21.9259 18.3079 21.0508C17.9242 20.7688 17.6023 20.7877 17.2247 21.0012C16.129 21.6209 14.9489 21.9627 13.692 22.0174C12.2961 22.0782 11.0243 21.7478 9.99717 20.7429C8.78716 19.5591 8.51798 18.1339 8.93478 16.5306C9.44006 14.5872 10.6559 13.3132 12.5463 12.6832C13.2501 12.4486 13.9998 12.4585 14.73 12.3693C15.9838 12.2159 17.2455 12.097 18.446 11.6746C19.4673 11.3153 20.2868 10.6704 20.9261 9.79697C21.4442 9.08908 21.6312 8.28311 21.65 7.42043C21.6628 6.8333 21.6226 6.24423 21.7039 5.659C21.8949 4.28386 23.1818 3.51106 24.4727 3.99499C25.0124 4.19732 25.2982 4.6259 25.4877 5.13489C25.5859 5.39871 25.6257 5.67805 25.6495 5.95897C25.6629 6.11612 25.6767 6.27402 25.7043 6.42909C25.8442 7.21512 26.4781 7.64944 27.2635 7.50083C27.4972 7.45663 27.7219 7.383 27.9392 7.28644C28.3945 7.08416 28.8252 6.82264 29.3586 6.72437C29.1749 6.50664 28.9825 6.40575 28.7235 6.45081C28.5302 6.48448 28.3584 6.5689 28.1887 6.66302C27.8587 6.84616 27.5271 7.02218 27.1439 7.07815C26.4873 7.17408 26.1398 6.88616 26.1235 6.22915C26.1172 5.97527 26.104 5.72021 26.0722 5.46845C25.8666 3.84128 24.0453 2.77031 22.5861 3.41752C21.7775 3.77614 21.428 4.47355 21.2319 5.2798C21.2114 5.36421 21.197 5.45016 21.1789 5.53991C21.0515 5.53264 21.0251 5.42629 20.9746 5.35501C20.7108 4.98267 20.4493 4.60889 20.1368 4.27429C19.1497 3.21731 17.4524 2.99968 16.2867 3.78376C16.1707 3.86177 16.0588 3.94903 15.9577 4.04528C15.3063 4.66518 15.4543 5.59878 16.2727 5.97053C16.5424 6.093 16.8367 6.16049 17.1183 6.25718C17.8605 6.51197 17.9871 7.14406 17.4025 7.6832C16.9643 8.08728 16.4124 8.19747 15.8484 8.24609C15.2743 8.29556 14.7084 8.2162 14.1631 8.02936C13.2199 7.70618 12.6639 6.91573 12.6023 5.83799C12.5393 4.73632 12.9696 3.84164 13.7444 3.08812C14.084 2.75781 14.4697 2.48799 14.8827 2.24593C14.8243 2.1881 14.7799 2.20173 14.7411 2.21261C13.5477 2.54744 12.6062 3.17854 12.1678 4.40173C12.0574 4.70969 12.0586 4.7017 11.7744 4.55656C10.7001 4.00799 9.63138 4.03801 8.6237 4.69041C7.61747 5.34187 7.17069 6.30174 7.2826 7.50232C7.30408 7.73286 7.37767 7.95853 7.42845 8.19233C5.49214 7.51189 3.48653 9.17156 3.05614 10.6001C2.74533 11.6317 2.85327 12.6411 3.37481 13.5785C3.95715 14.625 5.36475 15.1112 6.49133 14.7011C7.54384 14.3179 7.96994 13.0529 7.34214 12.148C6.95807 11.5944 6.37672 11.4589 5.74891 11.4479C5.65059 11.4462 5.54568 11.4799 5.51516 11.5862C5.48153 11.7034 5.60247 11.7271 5.66982 11.7637C5.86195 11.8682 6.06126 11.9599 6.25961 12.0524C7.0414 12.4173 7.20107 13.1623 6.63696 13.8186C6.23695 14.284 5.62026 14.4425 5.03566 14.2254C4.37079 13.9786 3.96302 13.4865 3.73274 12.8338C3.05592 10.9154 4.26638 8.9584 6.2825 8.71932C6.86543 8.65021 7.39631 8.80812 7.86142 9.16791C8.1042 9.3557 8.33149 9.56394 8.57774 9.74682C9.07964 10.1197 9.62235 10.3934 10.2713 10.3717C10.5947 10.3609 10.8674 10.2361 11.0806 9.99149C11.2688 9.77535 11.2459 9.63111 11.0046 9.47767C10.9603 9.4495 10.9132 9.42571 10.8667 9.40102C10.6075 9.26329 10.5999 9.26338 10.5991 9.55158C10.5987 9.72655 10.5164 9.80965 10.3559 9.83642C10.1071 9.87791 9.86775 9.84017 9.63197 9.75661C7.82869 9.11739 7.27619 6.79452 8.59919 5.41143C9.239 4.74255 10.3805 4.55471 11.2026 4.97928C11.5783 5.17326 11.8009 5.48475 11.9102 5.88313C11.9986 6.205 12.0963 6.52222 12.2418 6.82427C12.8534 8.09364 13.9254 8.65111 15.2702 8.7827C16.0071 8.8548 16.7264 8.79561 17.3941 8.43804C18.1391 8.03911 18.4641 7.42783 18.3458 6.67295C18.2879 6.30323 18.0951 6.04835 17.7473 5.90376C17.4856 5.79492 17.2064 5.75764 16.9362 5.6841C16.5534 5.57991 16.2037 5.40895 16.1623 4.9661C16.1211 4.52542 16.4368 4.28458 16.7826 4.10482C17.7229 3.61615 19.1593 3.88173 19.8472 4.70482C20.6974 5.72188 21.0783 6.90566 20.9005 8.22911C20.7853 9.08665 20.3059 9.75567 19.6431 10.2919C18.7297 11.0309 17.6515 11.3722 16.5154 11.5806C15.3222 11.7995 14.1054 11.8293 12.9127 12.0167C10.8696 12.3378 8.6841 13.7509 8.30608 16.2682C8.26021 16.5738 8.26992 16.8809 8.27723 17.1878C8.27967 17.2904 8.28445 17.3877 8.14609 17.3946C6.84412 17.4603 5.5348 17.6847 4.24484 17.3351C2.21563 16.7851 0.716435 14.9715 0.531936 12.8606C0.344323 10.7137 0.951899 8.83588 2.49362 7.29863C3.09348 6.70054 3.82538 6.30183 4.61858 6.01874C4.79184 5.95689 4.88176 5.87573 4.93585 5.68893C5.51986 3.67131 7.32769 2.22873 9.42805 2.09542C9.77791 2.07321 10.1304 2.05768 10.4798 2.07502C10.8099 2.09141 11.0743 1.99272 11.3145 1.77229C11.6185 1.49322 11.9427 1.23581 12.3051 1.03547C13.7211 0.252645 15.2143 0.207594 16.7455 0.596184C16.9328 0.643719 17.0939 0.640873 17.2801 0.589907C18.2324 0.329162 19.1794 0.258921 20.1013 0.723622C20.4355 0.892095 20.7238 1.12052 20.9807 1.38474C21.1366 1.54504 21.2799 1.57308 21.4915 1.50649C22.7417 1.11312 23.99 1.07682 25.2306 1.55949C26.3398 1.99101 27.1813 2.72661 27.7292 3.78146C27.8593 4.03196 28.0235 4.13308 28.2965 4.15971C30.0847 4.33392 31.3798 5.18802 32.0216 6.9146C32.0768 7.06321 32.1883 7.13179 32.3066 7.20645C33.007 7.64817 33.5239 8.23178 33.7336 9.05293C33.8491 9.50508 33.8251 9.95872 33.7387 10.4104C33.6675 10.7832 33.7628 11.0634 34.0401 11.3526C35.5297 12.9062 36.5734 15.7616 35.4558 18.4145C34.7605 20.0647 33.0997 21.1651 31.4111 21.1097C30.0823 21.0662 28.9134 20.1387 28.6852 18.9291C28.5724 18.3307 28.6436 17.7544 29.0107 17.2463C29.409 16.6952 30.1607 16.5649 30.6914 16.9387C30.8344 17.0395 30.9058 17.1562 30.8842 17.3365C30.8572 17.5631 30.8531 17.79 30.908 18.0165C31.0648 18.6636 31.5766 18.9966 32.2304 18.8701C33.089 18.7039 33.7497 17.9506 33.8138 17.0646C33.9082 15.7606 33.3321 14.76 32.1568 14.1866C31.6262 13.9277 31.5829 13.8749 31.8339 13.3256C32.25 12.4147 32.2089 11.505 31.9203 10.5804C31.7203 9.93976 30.9089 9.33593 30.2403 9.33656C29.9183 9.33687 29.6465 9.47384 29.408 9.68227C29.0798 9.96892 28.8369 10.3223 28.6187 10.6949C28.5663 10.7842 28.5153 10.8745 28.4351 11.0144ZM18.4941 15.5068C18.9607 15.494 19.4247 15.5266 19.8862 15.5858C20.6196 15.6798 21.3428 15.8112 21.9874 16.2093C22.677 16.6353 23.062 17.5102 22.9002 18.2996C22.8494 18.5471 22.7386 18.7651 22.5461 18.9312C21.9127 19.4776 21.1987 19.6163 20.4138 19.3214C19.6877 19.0487 19.3353 18.2262 19.9427 17.62C19.9807 17.5821 20.0568 17.5393 20.0139 17.4688C19.9757 17.406 19.9035 17.4352 19.845 17.444C19.2379 17.5354 18.8677 18.123 19.0477 18.7171C19.1585 19.0826 19.3801 19.3696 19.6925 19.5888C20.576 20.2086 21.8117 20.204 22.7095 19.5733C23.132 19.2766 23.461 18.9057 23.5499 18.3795C23.7182 17.3826 23.3514 16.592 22.5762 15.9766C22.1448 15.634 21.6492 15.4132 21.121 15.2629C19.5887 14.8266 18.0378 14.8138 16.481 15.0871C15.3573 15.2844 14.2842 15.6325 13.346 16.3095C12.8097 16.6965 12.3764 17.1762 12.1542 17.8117C11.8562 18.6642 12.1764 19.4132 12.9664 19.748C13.822 20.1107 14.9905 19.8289 15.5849 19.1144C15.667 19.0158 15.7885 18.9123 15.6756 18.7718C15.5678 18.6376 15.4115 18.631 15.2688 18.706C15.1142 18.7872 14.9728 18.8933 14.8252 18.988C14.369 19.2808 13.8844 19.3611 13.3693 19.1698C12.9475 19.013 12.732 18.6849 12.7392 18.2381C12.7448 17.8864 12.8978 17.5958 13.1078 17.3289C13.5019 16.8279 14.0045 16.4661 14.5862 16.2178C15.834 15.685 17.1533 15.5328 18.4941 15.5068Z" fill="#BD1E0F"/>
<path d="M27.9688 18.3647C27.9768 19.2256 28.2557 19.8708 28.6257 20.4882C28.7212 20.6476 28.9198 20.8243 28.7994 21.0005C28.7043 21.1395 28.472 21.0377 28.3026 21.0219C27.4529 20.9422 26.6046 20.9348 25.7562 21.0387C25.6583 21.0507 25.5342 21.1071 25.4684 20.9879C25.4125 20.8865 25.5076 20.8065 25.5568 20.7302C26.0284 19.9986 26.3717 19.2214 26.4525 18.342C26.546 17.3246 26.2338 16.4228 25.6889 15.5842C25.5599 15.3858 25.422 15.1931 25.2976 14.9919C25.17 14.7856 25.2041 14.7169 25.4494 14.6948C25.8251 14.661 26.1996 14.6235 26.5694 14.5447C27.9734 14.2454 28.6933 13.4207 28.7481 11.9832C28.7762 11.2465 29.0869 10.6733 29.6144 10.193C29.7714 10.0501 29.9502 9.94141 30.1553 9.87762C30.5664 9.74973 30.8774 9.83216 31.1293 10.1816C31.7003 10.9738 31.8013 11.8454 31.4752 12.7532C31.3309 13.155 31.1156 13.5322 30.9203 13.9144C30.841 14.0696 30.863 14.1483 31.0308 14.2067C31.2705 14.2902 31.5098 14.3791 31.7389 14.4877C32.7825 14.9825 33.3486 15.9796 33.2404 17.1156C33.1877 17.6699 32.7615 18.1588 32.2193 18.2871C31.644 18.4233 31.1896 18.0382 31.3036 17.4629C31.3765 17.0948 31.2564 16.8683 30.9917 16.6458C29.9401 15.7621 28.4832 16.2645 28.0833 17.6585C28.0056 17.929 27.9637 18.2065 27.9688 18.3647Z" fill="#BD1E0F"/>
<path d="M22.2864 23.3937C22.2204 24.3533 22.4876 25.1994 23.1634 25.8968C23.7703 26.5231 24.0121 27.3097 24.1971 28.1322C24.3455 28.7918 24.4831 29.4515 24.5462 30.1252C24.5836 30.5242 24.4012 30.7075 24.0095 30.6638C23.3427 30.5894 22.817 30.3224 22.5039 29.6794C22.2315 29.12 21.9354 28.5724 21.7073 27.9923C21.1022 26.4532 20.2138 25.1232 18.8897 24.1011C18.3025 23.6479 17.796 23.1142 17.4723 22.4308C17.3892 22.2554 17.3271 22.074 17.2888 21.8839C17.2511 21.6964 17.3303 21.6043 17.5182 21.5852C17.8035 21.5562 18.0274 21.7043 18.2471 21.844C18.817 22.2063 19.4296 22.4563 20.093 22.5774C20.7099 22.6901 21.3314 22.6876 21.9548 22.6386C22.2866 22.6126 22.2873 22.6196 22.2877 22.9464C22.2878 23.0253 22.2867 23.1042 22.2864 23.1832C22.2862 23.2534 22.2864 23.3235 22.2864 23.3937Z" fill="#BD1E0F"/>
<path d="M26.5769 26.6258C25.7491 26.6712 24.974 26.478 24.2501 26.0866C23.7363 25.8088 23.3221 25.427 23.1137 24.8608C23.0168 24.5975 23.0543 24.5575 23.3312 24.5698C25.0958 24.6481 26.7243 24.2559 28.1459 23.1606C28.7563 22.6903 29.161 22.0791 29.3858 21.3447C29.4889 21.0078 29.4902 21.0087 29.8214 21.1583C30.3668 21.4046 30.93 21.5975 31.5211 21.6958C31.705 21.7263 31.7819 21.7938 31.7464 21.9889C31.4211 23.7752 30.5622 25.199 28.9415 26.0954C28.209 26.5006 27.398 26.5953 26.5769 26.6258Z" fill="#BD1E0F"/>
<path d="M25.7001 14.2035C24.4484 14.1895 23.463 13.1017 23.6442 11.9331C23.7085 11.5187 23.9176 11.1779 24.2025 10.8827C24.6495 10.4196 25.1929 10.1056 25.7989 9.90145C26.7887 9.56798 27.6266 9.98203 27.9739 10.9675C28.5577 12.6237 27.434 14.2229 25.7001 14.2035Z" fill="#BD1E0F"/>
<path d="M26.6127 21.5256C27.2613 21.5343 27.732 21.5687 28.1841 21.7347C28.3732 21.8041 28.4147 21.9061 28.2724 22.0622C27.0028 23.4553 25.488 24.2685 23.5454 24.0029C22.7218 23.8903 22.7339 23.3383 22.9221 22.7502C22.9563 22.6435 23.0493 22.5827 23.1439 22.5353C24.2914 21.9602 25.4813 21.537 26.6127 21.5256Z" fill="#BD1E0F"/>
</svg>
